<?xml version="1.0" encoding="UTF-8"?>
<svg width="200" height="100" viewBox="0 0 200 100" xmlns="http://www.w3.org/2000/svg">
  <defs>
    <linearGradient id="goldGradient" x1="0%" y1="0%" x2="100%" y2="100%">
      <stop offset="0%" style="stop-color:#D4AF37;stop-opacity:1" />
      <stop offset="100%" style="stop-color:#FFD700;stop-opacity:1" />
    </linearGradient>
  </defs>
  
  <!-- EC Letters -->
  <g transform="translate(20, 15)">
    <!-- Letter E -->
    <path d="M0 0 L0 50 L25 50 L25 40 L12 40 L12 30 L22 30 L22 20 L12 20 L12 10 L25 10 L25 0 Z" 
          fill="url(#goldGradient)" stroke="#B8860B" stroke-width="1"/>
    
    <!-- Letter C -->
    <path d="M35 0 Q55 0 55 10 L45 10 Q35 5 35 25 Q35 45 45 40 L55 40 Q55 50 35 50 Q15 50 15 25 Q15 0 35 0 Z" 
          fill="url(#goldGradient)" stroke="#B8860B" stroke-width="1"/>
  </g>
  
  <!-- "Events on Charles" text -->
  <text x="100" y="30" font-family="serif" font-size="12" font-style="italic" fill="url(#goldGradient)" font-weight="400">
    Events on Charles
  </text>
</svg> 